# xmcd
#
# Track frame offsets:
#	150
#	12410
#	25047
#	37720
#	45995
#	57975
#	74220
#	82450
#	94307
#	106280
#	119015
#	137162
#	154095
#	164712
#	176187
#	187622
#	203672
#	212185
#	221827
#	234420
#	244882
#	255805
#
# Disc length: 3591 seconds
#
# Revision: 1
# Processed by: cddbd v1.4PL0 Copyright (c) Steve Scherf et al.
# Submitted via: audiograbber 1.81.02
#
DISCID=3f0e0516
DTITLE=Johnny Cash - Folsom prison blues
DYEAR=1999
DGENRE=Blues
TTITLE0=Folsom prison blues
TTITLE1=Ring of fire
TTITLE2=Long black veil
TTITLE3=Gt rhythm
TTITLE4=Sixteen tons
TTITLE5=City of New Orleans
TTITLE6=The wall
TTITLE7=The highwayman
TTITLE8=I still miss someone
TTITLE9=Peace in the valley
TTITLE10=Orange blossom special
TTITLE11=Sunday morning coming down
TTITLE12=There you go
TTITLE13=These hands
TTITLE14=Big river
TTITLE15=A boy named Sue
TTITLE16=I got stripes
TTITLE17=Why me Lord
TTITLE18=Jackson (with June Carter Cash)
TTITLE19=If I were a carpenter
TTITLE20=Rock island line
TTITLE21=I walk the line
EXTD=
EXTT0=
EXTT1=
EXTT2=
EXTT3=
EXTT4=
EXTT5=
EXTT6=
EXTT7=
EXTT8=
EXTT9=
EXTT10=
EXTT11=
EXTT12=
EXTT13=
EXTT14=
EXTT15=
EXTT16=
EXTT17=
EXTT18=
EXTT19=
EXTT20=
EXTT21=
PLAYORDER=
